# xmcd CD database file
#
# Track frame offsets:
#	150
#	18753
#	33927
#	48703
#	66064
#	83878
#	97262
#	109124
#	126013
#	144146
#	159943
#	172975
#	186567
#
# Disc length: 2680 seconds
#
# Revision: 0
# Processed by: cddbd v1.5.2PL0 Copyright (c) Steve Scherf et al.
# Submitted via: CDex 1.51
#
DISCID=a60a760d
DTITLE=The Daddys - Daddyism
DYEAR=2007
DGENRE=Country
TTITLE0=No More
TTITLE1=Deserted
TTITLE2=Hold Me Now
TTITLE3=Touch Me With Your Love
TTITLE4=Wanting
TTITLE5=Family Man
TTITLE6=Lullaby
TTITLE7=Go Now
TTITLE8=You Kept Lookin' Around
TTITLE9=Love
TTITLE10=Lions
TTITLE11=Jupiter
TTITLE12=Wild Goose
EXTD=YEAR: 2007
EXTT0=
EXTT1=
EXTT2=
EXTT3=
EXTT4=
EXTT5=
EXTT6=
EXTT7=
EXTT8=
EXTT9=
EXTT10=
EXTT11=
EXTT12=
PLAYORDER=
